<?xml version="1.0" ?><!DOCTYPE svg  PUBLIC '-//W3C//DTD SVG 1.1//EN'  'http://www.w3.org/Graphics/SVG/1.1/DTD/svg11.dtd'><svg enable-background="new 0 0 48 48" height="48px" version="1.1" viewBox="0 0 48 48" width="48px" xml:space="preserve" xmlns="http://www.w3.org/2000/svg" xmlns:xlink="http://www.w3.org/1999/xlink"><g id="Layer_4"><path d="M32.481,23.997C33.448,21.861,34,19.498,34,17c0-9.389-7.611-17-17-17c-2.497,0-4.861,0.552-6.997,1.519   l9.504,9.504l0,0c-0.031-0.031-1.133,7.394-1.133,7.394l-7.332,1.111l-9.525-9.524C0.552,12.14,0,14.503,0,17   c0,9.389,7.611,17,17,17c2.497,0,4.86-0.552,6.995-1.518L39.515,48l8.484-8.484L32.481,23.997z" fill="#241F20"/></g></svg>